# Apple ModelIO OBJ File: platformbase
mtllib platformbase.mtl
g Plane_None
v 0.975 -0.025 1
v -0.975 -0.025 1
v -0.975 -0.275 1
v 0.975 -0.275 1
v -0.975 0 0.975
v 0.975 0 0.975
v 0.975 0 -0.975
v -0.975 0 -0.975
v 1 -0.025 -0.975
v 1 -0.025 0.975
v 1 -0.275 0.975
v 1 -0.275 -0.975
v -0.975 -0.025 -1
v 0.975 -0.025 -1
v 0.975 -0.275 -1
v -0.975 -0.275 -1
v -0.975 -0.3 0.975
v -0.975 -0.3 -0.975
v 0.975 -0.3 -0.975
v 0.975 -0.3 0.975
v -1 -0.025 0.975
v -1 -0.025 -0.975
v -1 -0.275 0.975
v -1 -0.275 -0.975
vn 0 0 1
vn 0 1 0
vn 1 0 0
vn 0 0 -1
vn 0 -1 0
vn -0.5774 0.5774 0.5774
vn 0.5774 0.5774 0.5774
vn -0.5774 0.5774 -0.5774
vn 0.5774 0.5774 -0.5774
vn -0.5773 -0.5773 0.5774
vn 0.5773 -0.5773 0.5774
vn -0.5773 -0.5773 -0.5774
vn 0.5773 -0.5773 -0.5774
vn -0.7071 0.7071 -0
vn 0 0.7071 0.7071
vn 0.7071 0.7071 0
vn 0 0.7071 -0.7071
vn -0.7071 -0.7071 0
vn 0 -0.7071 0.7071
vn 0.7071 -0.7071 0
vn 0 -0.7071 -0.7071
vn -0.7071 0 0.7071
vn 0.7071 0 0.7071
vn -0.7071 0 -0.7071
vn 0.7071 0 -0.7071
vn -1 0 0
vt 0.074061 0.007325
vt 0.07406 0.34194
vt 0.013392 0.34194
vt 0.013392 0.007325
vt 0.188296 0.486608
vt 0.188296 0.013392
vt 0.661513 0.013392
vt 0.661513 0.486608
vt 0.161513 0.350519
vt 0.161513 0.685134
vt 0.100844 0.685134
vt 0.100844 0.350519
vt 0.161513 0.007325
vt 0.161513 0.34194
vt 0.100844 0.34194
vt 0.100844 0.007325
vt 0.188296 0.513392
vt 0.661513 0.513392
vt 0.661513 0.986608
vt 0.188296 0.986608
vt 0.07406 0.350519
vt 0.080127 0.346229
vt 0.690809 0.013392
vt 0.682229 0.013392
vt 0.686519 0.007325
vt 0.682229 0.100844
vt 0.686519 0.094777
vt 0.690809 0.100844
vt 0.16758 0.346229
vt 0.013392 0.350519
vt 0.007325 0.346229
vt 0.690809 0.074061
vt 0.686519 0.080127
vt 0.682229 0.074061
vt 0.682229 0.161513
vt 0.690809 0.161513
vt 0.686519 0.16758
vt 0.094777 0.346229
vt 0.661513 0.492675
vt 0.188296 0.492675
vt 0.182229 0.486608
vt 0.182229 0.013392
vt 0.188296 0.007325
vt 0.661513 0.007325
vt 0.66758 0.013392
vt 0.66758 0.486608
vt 0.188296 0.507325
vt 0.661513 0.507325
vt 0.182229 0.986608
vt 0.182229 0.513392
vt 0.661513 0.992675
vt 0.188296 0.992675
vt 0.66758 0.513392
vt 0.66758 0.986608
vt 0.07406 0.685134
vt 0.013392 0.685134
usemtl None
f 1/1/1 2/2/1 3/3/1
f 1/1/1 3/3/1 4/4/1
f 5/5/2 6/6/2 7/7/2
f 5/5/2 7/7/2 8/8/2
f 9/9/3 10/10/3 11/11/3
f 9/9/3 11/11/3 12/12/3
f 13/13/4 14/14/4 15/15/4
f 13/13/4 15/15/4 16/16/4
f 17/17/5 18/18/5 19/19/5
f 17/17/5 19/19/5 20/20/5
f 21/21/6 2/2/6 5/22/6
f 1/23/7 10/24/7 6/25/7
f 22/26/8 8/27/8 13/28/8
f 9/9/9 14/14/9 7/29/9
f 23/30/10 17/31/10 3/3/10
f 4/32/11 20/33/11 11/34/11
f 24/35/12 16/36/12 18/37/12
f 12/12/13 19/38/13 15/15/13
f 22/39/14 21/40/14 5/5/14
f 22/39/14 5/5/14 8/8/14
f 2/41/15 1/42/15 6/6/15
f 2/41/15 6/6/15 5/5/15
f 10/43/16 9/44/16 7/7/16
f 10/43/16 7/7/16 6/6/16
f 14/45/17 13/46/17 8/8/17
f 14/45/17 8/8/17 7/7/17
f 18/18/18 17/17/18 23/47/18
f 18/18/18 23/47/18 24/48/18
f 17/17/19 20/20/19 4/49/19
f 17/17/19 4/49/19 3/50/19
f 20/20/20 19/19/20 12/51/20
f 20/20/20 12/51/20 11/52/20
f 19/19/21 18/18/21 16/53/21
f 19/19/21 16/53/21 15/54/21
f 21/21/22 23/30/22 3/3/22
f 21/21/22 3/3/22 2/2/22
f 1/23/23 4/32/23 11/34/23
f 1/23/23 11/34/23 10/24/23
f 13/28/24 16/36/24 24/35/24
f 13/28/24 24/35/24 22/26/24
f 9/9/25 12/12/25 15/15/25
f 9/9/25 15/15/25 14/14/25
f 21/21/26 22/55/26 24/56/26
f 21/21/26 24/56/26 23/30/26
s off
